<?xml version="1.0" encoding="UTF-8"?>
<svg id="Layer_1" data-name="Layer 1" xmlns="http://www.w3.org/2000/svg" viewBox="0 0 210.99 52.78">
  <defs>
    <style>
      .cls-1 {
        fill: #122e53;
      }
    </style>
  </defs>
  <path class="cls-1" d="M19.09,52.78c-3.66,0-6.93-.82-9.8-2.45-2.88-1.63-5.15-3.93-6.8-6.88-1.66-2.95-2.49-6.35-2.49-10.21,0-2.83,.48-5.44,1.43-7.83,.95-2.39,2.29-4.45,4.02-6.18,1.73-1.73,3.75-3.06,6.07-3.99,2.32-.93,4.82-1.39,7.5-1.39,3.71,0,6.99,.82,9.84,2.45,2.85,1.63,5.11,3.91,6.77,6.84,1.66,2.93,2.49,6.32,2.49,10.17,0,2.88-.46,5.5-1.39,7.86-.93,2.37-2.26,4.43-3.99,6.18-1.73,1.76-3.76,3.1-6.07,4.02-2.32,.93-4.84,1.39-7.57,1.39Zm-.07-7.1c1.56,0,3.02-.28,4.39-.84,1.36-.56,2.53-1.36,3.51-2.41,.98-1.05,1.73-2.35,2.27-3.91,.54-1.56,.8-3.29,.8-5.19,0-2.58-.48-4.8-1.43-6.66-.95-1.85-2.24-3.27-3.88-4.24-1.63-.98-3.52-1.46-5.67-1.46-1.56,0-3,.28-4.32,.84-1.32,.56-2.46,1.38-3.44,2.45-.98,1.07-1.73,2.37-2.27,3.88-.54,1.51-.8,3.24-.8,5.19,0,2.59,.46,4.8,1.39,6.66,.93,1.85,2.22,3.27,3.88,4.24,1.66,.98,3.51,1.46,5.56,1.46Z"/>
  <path class="cls-1" d="M45.94,10.1c-1.51,0-2.77-.45-3.77-1.35-1-.9-1.5-2.13-1.5-3.69s.5-2.73,1.5-3.66c1-.93,2.26-1.39,3.77-1.39s2.78,.46,3.8,1.39c1.02,.93,1.54,2.15,1.54,3.66s-.51,2.79-1.54,3.69c-1.02,.9-2.29,1.35-3.8,1.35Zm3.95,4.57V51.97h-7.9V14.67h7.9Z"/>
  <path class="cls-1" d="M65.76,51.97c-2.24,0-4.13-.44-5.67-1.32-1.54-.88-2.7-2.11-3.47-3.69-.78-1.58-1.17-3.43-1.17-5.52V.77h7.97V40.93c0,1.32,.29,2.33,.88,3.04,.58,.71,1.51,1.06,2.78,1.06h2.93v6.95h-4.24Z"/>
  <path class="cls-1" d="M86.46,52.78c-3.22,0-6.11-.84-8.67-2.52-2.56-1.68-4.58-3.99-6.07-6.91-1.49-2.93-2.23-6.27-2.23-10.02,0-2.88,.43-5.5,1.28-7.86,.85-2.36,2.05-4.41,3.58-6.14,1.54-1.73,3.34-3.07,5.41-4.02,2.07-.95,4.3-1.43,6.69-1.43,2.83,0,5.22,.58,7.17,1.76,1.95,1.17,3.53,2.72,4.75,4.64,1.22,1.93,2.1,4.04,2.63,6.33,.54,2.29,.8,4.54,.8,6.73s-.27,4.44-.8,6.73c-.54,2.29-1.42,4.39-2.63,6.29-1.22,1.9-2.81,3.45-4.75,4.64-1.95,1.19-4.34,1.79-7.17,1.79Zm1.76-7.17c1.56,0,3-.27,4.32-.8,1.32-.54,2.44-1.34,3.37-2.41,.93-1.07,1.66-2.38,2.19-3.91,.54-1.54,.8-3.26,.8-5.16,0-3.9-1-6.94-3-9.11-2-2.17-4.56-3.26-7.68-3.26-1.56,0-2.99,.28-4.28,.84-1.29,.56-2.41,1.38-3.36,2.45-.95,1.07-1.7,2.37-2.23,3.88-.54,1.51-.8,3.24-.8,5.19,0,3.85,1,6.87,3,9.03,2,2.17,4.56,3.26,7.68,3.26Zm10.53,6.36v-11.85l1.46-6.8-1.46-5.92V14.67h7.9V51.97h-7.9Z"/>
  <path class="cls-1" d="M130.87,13.86c2.63,0,4.97,.58,7.02,1.76,2.05,1.17,3.66,2.84,4.83,5.01,1.17,2.17,1.76,4.72,1.76,7.64v23.7h-7.9V29.59c0-2.73-.72-4.86-2.16-6.4-1.44-1.54-3.28-2.3-5.52-2.3-2.59,0-4.69,.79-6.33,2.38-1.63,1.59-2.45,3.79-2.45,6.62v22.09h-7.9V14.67h7.9v8.92l-1.17-.95c1.02-3.17,2.62-5.42,4.79-6.77,2.17-1.34,4.55-2.01,7.13-2.01Z"/>
  <path class="cls-1" d="M152.84,52.78c-1.61,0-2.91-.52-3.91-1.57s-1.5-2.38-1.5-3.99,.5-2.93,1.5-3.95c1-1.02,2.3-1.54,3.91-1.54s2.93,.51,3.95,1.54c1.02,1.02,1.54,2.34,1.54,3.95s-.51,2.94-1.54,3.99c-1.02,1.05-2.34,1.57-3.95,1.57Z"/>
  <path class="cls-1" d="M175.95,52.78c-3.22,0-6.11-.84-8.67-2.52-2.56-1.68-4.58-3.99-6.07-6.91-1.49-2.93-2.23-6.27-2.23-10.02,0-2.88,.43-5.5,1.28-7.86,.85-2.36,2.05-4.41,3.58-6.14,1.54-1.73,3.34-3.07,5.41-4.02,2.07-.95,4.3-1.43,6.69-1.43,2.83,0,5.22,.58,7.17,1.76,1.95,1.17,3.53,2.72,4.75,4.64,1.22,1.93,2.1,4.04,2.63,6.33,.54,2.29,.8,4.54,.8,6.73s-.27,4.44-.8,6.73c-.54,2.29-1.42,4.39-2.63,6.29-1.22,1.9-2.81,3.45-4.75,4.64-1.95,1.19-4.34,1.79-7.17,1.79Zm1.76-7.17c1.56,0,3-.27,4.32-.8,1.32-.54,2.44-1.34,3.37-2.41,.93-1.07,1.66-2.38,2.19-3.91,.54-1.54,.8-3.26,.8-5.16,0-3.9-1-6.94-3-9.11-2-2.17-4.56-3.26-7.68-3.26-1.56,0-2.99,.28-4.28,.84-1.29,.56-2.41,1.38-3.36,2.45-.95,1.07-1.7,2.37-2.23,3.88-.54,1.51-.8,3.24-.8,5.19,0,3.85,1,6.87,3,9.03,2,2.17,4.56,3.26,7.68,3.26Zm10.53,6.36v-11.85l1.46-6.8-1.46-5.92V14.67h7.9V51.97h-7.9Z"/>
  <path class="cls-1" d="M205.65,10.1c-1.51,0-2.77-.45-3.77-1.35-1-.9-1.5-2.13-1.5-3.69s.5-2.73,1.5-3.66c1-.93,2.26-1.39,3.77-1.39s2.78,.46,3.8,1.39c1.02,.93,1.54,2.15,1.54,3.66s-.51,2.79-1.54,3.69c-1.02,.9-2.29,1.35-3.8,1.35Zm3.95,4.57V51.97h-7.9V14.67h7.9Z"/>
</svg>