<?xml version="1.0" encoding="UTF-8"?>
<svg id="Layer_1" xmlns="http://www.w3.org/2000/svg" version="1.1" viewBox="0 0 234.23 72.59">
  <!-- Generator: Adobe Illustrator 29.7.1, SVG Export Plug-In . SVG Version: 2.1.1 Build 8)  -->
  <defs>
    <style>
      .st0 {
        fill: #142f53;
      }

      .st1 {
        fill: #009ade;
      }
    </style>
  </defs>
  <g>
    <path class="st0" d="M86.43,50.06c-2.59,0-4.9-.58-6.93-1.73-2.04-1.16-3.64-2.78-4.81-4.86-1.17-2.09-1.76-4.49-1.76-7.22,0-2,.34-3.85,1.01-5.54.67-1.69,1.62-3.15,2.85-4.37,1.22-1.22,2.66-2.16,4.29-2.82,1.64-.65,3.41-.98,5.3-.98,2.62,0,4.94.58,6.96,1.73,2.02,1.16,3.61,2.77,4.79,4.84,1.17,2.07,1.76,4.47,1.76,7.19,0,2.04-.33,3.89-.98,5.56-.66,1.67-1.6,3.13-2.82,4.37-1.22,1.24-2.66,2.19-4.29,2.85-1.64.65-3.42.98-5.35.98ZM86.38,45.04c1.1,0,2.14-.2,3.1-.59.97-.4,1.79-.97,2.48-1.71.69-.74,1.22-1.66,1.6-2.77.38-1.1.57-2.33.57-3.67,0-1.83-.34-3.4-1.01-4.71-.67-1.31-1.59-2.31-2.74-3-1.16-.69-2.49-1.04-4.01-1.04-1.1,0-2.12.2-3.05.6-.93.4-1.74.98-2.43,1.73-.69.76-1.22,1.67-1.6,2.74-.38,1.07-.57,2.29-.57,3.67,0,1.83.33,3.4.98,4.71.65,1.31,1.57,2.31,2.74,3,1.17.69,2.48,1.03,3.93,1.03Z"/>
    <path class="st0" d="M105.42,19.87c-1.07,0-1.96-.32-2.66-.96-.71-.64-1.06-1.51-1.06-2.61s.35-1.93,1.06-2.59c.71-.65,1.59-.98,2.66-.98s1.97.33,2.69.98c.72.66,1.09,1.52,1.09,2.59s-.36,1.97-1.09,2.61c-.72.64-1.62.96-2.69.96ZM108.22,23.1v26.39h-5.59v-26.39h5.59Z"/>
    <path class="st0" d="M119.44,49.49c-1.59,0-2.92-.31-4.01-.93-1.09-.62-1.91-1.49-2.46-2.61-.55-1.12-.83-2.42-.83-3.91V13.27h5.64v28.4c0,.93.21,1.65.62,2.15.41.5,1.07.75,1.97.75h2.07v4.92h-3Z"/>
    <path class="st0" d="M134.08,50.06c-2.28,0-4.32-.6-6.13-1.79-1.81-1.19-3.24-2.82-4.29-4.89-1.05-2.07-1.58-4.43-1.58-7.09,0-2.03.3-3.89.91-5.56.6-1.67,1.45-3.12,2.54-4.35,1.09-1.22,2.36-2.17,3.83-2.85,1.47-.67,3.04-1.01,4.73-1.01,2,0,3.69.41,5.07,1.24,1.38.83,2.5,1.92,3.36,3.29.86,1.36,1.48,2.85,1.86,4.48.38,1.62.57,3.21.57,4.76s-.19,3.14-.57,4.76c-.38,1.62-1,3.1-1.86,4.45-.86,1.34-1.98,2.44-3.36,3.29-1.38.84-3.07,1.27-5.07,1.27ZM135.33,44.99c1.1,0,2.12-.19,3.05-.57.93-.38,1.72-.95,2.38-1.71.65-.76,1.17-1.68,1.55-2.77.38-1.09.57-2.3.57-3.65,0-2.76-.71-4.91-2.12-6.44-1.41-1.53-3.23-2.3-5.43-2.3-1.1,0-2.11.2-3.03.6-.91.4-1.71.98-2.38,1.73-.67.76-1.2,1.67-1.58,2.74-.38,1.07-.57,2.29-.57,3.67,0,2.73.71,4.86,2.12,6.39,1.41,1.54,3.22,2.3,5.43,2.3ZM142.78,49.49v-8.38l1.03-4.81-1.03-4.19v-9h5.59v26.39h-5.59Z"/>
    <path class="st0" d="M165.49,22.53c1.86,0,3.52.41,4.97,1.24s2.59,2.01,3.41,3.54c.83,1.54,1.24,3.34,1.24,5.41v16.76h-5.59v-15.83c0-1.93-.51-3.44-1.53-4.53-1.02-1.09-2.32-1.63-3.91-1.63-1.83,0-3.32.56-4.48,1.68-1.16,1.12-1.73,2.68-1.73,4.68v15.63h-5.59v-26.39h5.59v6.31l-.83-.67c.72-2.24,1.85-3.84,3.39-4.79,1.53-.95,3.22-1.42,5.04-1.42Z"/>
    <path class="st0" d="M181.03,50.06c-1.14,0-2.06-.37-2.77-1.11s-1.06-1.68-1.06-2.82.35-2.07,1.06-2.79c.71-.72,1.63-1.09,2.77-1.09s2.07.36,2.79,1.09c.72.72,1.09,1.66,1.09,2.79s-.36,2.08-1.09,2.82c-.72.74-1.66,1.11-2.79,1.11Z"/>
    <path class="st0" d="M197.38,50.06c-2.28,0-4.32-.6-6.13-1.79-1.81-1.19-3.24-2.82-4.29-4.89-1.05-2.07-1.58-4.43-1.58-7.09,0-2.03.3-3.89.91-5.56.6-1.67,1.45-3.12,2.54-4.35,1.09-1.22,2.36-2.17,3.83-2.85,1.47-.67,3.04-1.01,4.73-1.01,2,0,3.69.41,5.07,1.24,1.38.83,2.5,1.92,3.36,3.29.86,1.36,1.48,2.85,1.86,4.48.38,1.62.57,3.21.57,4.76s-.19,3.14-.57,4.76c-.38,1.62-1,3.1-1.86,4.45-.86,1.34-1.98,2.44-3.36,3.29-1.38.84-3.07,1.27-5.07,1.27ZM198.62,44.99c1.1,0,2.12-.19,3.05-.57.93-.38,1.72-.95,2.38-1.71.65-.76,1.17-1.68,1.55-2.77.38-1.09.57-2.3.57-3.65,0-2.76-.71-4.91-2.12-6.44-1.41-1.53-3.23-2.3-5.43-2.3-1.1,0-2.11.2-3.03.6-.91.4-1.71.98-2.38,1.73-.67.76-1.2,1.67-1.58,2.74-.38,1.07-.57,2.29-.57,3.67,0,2.73.71,4.86,2.12,6.39,1.41,1.54,3.22,2.3,5.43,2.3ZM206.07,49.49v-8.38l1.03-4.81-1.03-4.19v-9h5.59v26.39h-5.59Z"/>
    <path class="st0" d="M218.38,19.87c-1.07,0-1.96-.32-2.66-.96-.71-.64-1.06-1.51-1.06-2.61s.35-1.93,1.06-2.59c.71-.65,1.59-.98,2.66-.98s1.97.33,2.69.98c.72.66,1.09,1.52,1.09,2.59s-.36,1.97-1.09,2.61c-.72.64-1.62.96-2.69.96ZM221.18,23.1v26.39h-5.59v-26.39h5.59Z"/>
  </g>
  <g>
    <path class="st1" d="M32.07,13.34l-6.91-2.02v5.29l5.45,1.59v36.18l-5.45,1.59v5.29l6.91-2.02c1.4-.41,2.38-1.71,2.38-3.17V16.52c0-1.46-.98-2.76-2.38-3.17Z"/>
    <path class="st1" d="M17.99,41.69v-10.79c0-1.47-.97-2.77-2.37-3.17l-2.35-.7-1.4-.41h0s-1.4-.41-1.4-.41v5.3l1.4.41,1.4.41.89.26v7.42l-2.29.67-1.4.41v5.3l1.4-.41h0s3.76-1.11,3.76-1.11c1.4-.41,2.37-1.71,2.37-3.17Z"/>
    <path class="st1" d="M26.22,48.88v-25.17c0-1.46-.98-2.76-2.38-3.17l-6.91-2.02v5.29l5.45,1.59v21.8l-5.45,1.59v5.29l6.91-2.02c1.4-.41,2.38-1.71,2.38-3.17Z"/>
    <path class="st1" d="M42.66,18.2l5.45-1.59v-5.29l-6.91,2.02c-1.4.41-2.38,1.71-2.38,3.17v39.56c0,1.46.98,2.76,2.38,3.17l6.91,2.02v-5.29l-5.45-1.59V18.2Z"/>
    <path class="st1" d="M50.89,25.39l5.45-1.59v-5.29l-6.91,2.02c-1.4.41-2.38,1.71-2.38,3.17v25.17c0,1.46.98,2.76,2.38,3.17l6.91,2.02v-5.29l-5.45-1.59v-21.8Z"/>
    <path class="st1" d="M62.82,31.5v-5.3l-1.4.41h0s-3.76,1.11-3.76,1.11c-1.4.41-2.37,1.71-2.37,3.17v10.79c0,1.46.98,2.77,2.37,3.17l3.76,1.11h0s1.4.42,1.4.42v-5.3l-1.4-.41-2.29-.67v-7.42l2.29-.67h0s1.4-.41,1.4-.41Z"/>
  </g>
</svg>